<svg width="155" height="352" viewBox="0 0 155 352" fill="none" xmlns="http://www.w3.org/2000/svg">
    <path d="M143.589 52.6354C161.81 95.259 137.791 156.997 79.3799 198.771C17.5969 157.572 -8.06906 95.1599 9.98507 52.6354C19.4817 30.2668 46.7223 4.32227 79.3799 4.32227C112.037 4.32227 134.409 31.1629 143.589 52.6354Z" fill="#FF573D"/>
    <path d="M79.4657 204.022L76.9871 202.368C61.6557 192.145 48.0992 180.376 36.6936 167.39C25.7718 154.956 17.0669 141.703 10.8187 127.994C-1.71079 100.515 -3.41525 73.1523 6.01099 50.9444C11.3223 38.4356 21.2918 25.9401 33.3682 16.6615C43.2607 9.06064 59.2717 0 79.38 0C87.7967 0 95.9957 1.63598 103.746 4.8595C110.65 7.73072 117.226 11.8724 123.294 17.1679C136.931 29.0689 144.35 43.4316 147.556 50.9334C157.013 73.0554 155.819 100.321 144.194 127.712C138.407 141.344 130.25 154.584 119.942 167.062C109.22 180.044 96.4158 191.896 81.885 202.287L79.4613 204.02L79.4657 204.022ZM79.38 8.6467C61.6953 8.6467 47.457 16.7363 38.6268 23.5202C27.6962 31.9203 18.7054 43.1476 13.9593 54.3264C5.49195 74.2731 7.16563 99.1607 18.6724 124.405C24.5688 137.343 32.814 149.883 43.1771 161.68C53.4677 173.396 65.6079 184.089 79.2942 193.493C92.2173 183.967 103.643 173.233 113.291 161.553C123.067 149.718 130.791 137.193 136.25 124.33C146.945 99.1298 148.141 74.2709 139.621 54.3352C136.705 47.5117 129.966 34.4547 117.624 23.6854C106.187 13.7066 93.3214 8.64449 79.3822 8.64449L79.38 8.6467Z" fill="#2B3B43"/>
    <path d="M105.66 72.7626C105.686 83.3161 99.3322 93.2993 89.3099 98.7159C88.9118 110.428 88.5116 122.139 88.1135 133.851H66.5779C65.9928 121.985 65.4078 110.119 64.8206 98.2513C54.783 92.9867 48.3236 83.184 48.2312 72.7604C48.1015 58.1004 60.5825 44.0129 76.9454 44.0129C93.3259 44.0129 105.622 58.1313 105.66 72.7604V72.7626Z" fill="#7AF42A"/>
    <path d="M67.1408 43.577C70.431 49.5528 73.7211 55.5286 77.0113 61.5045C69.3511 65.2212 59.5158 71.3336 51.8534 75.0503C51.3828 73.3307 51.2486 61.837 56.5665 53.0339C60.0261 47.3069 64.9635 44.6052 67.1408 43.577Z" fill="#FFD136"/>
    <path d="M77.009 61.5045C83.3892 70.8756 91.2408 81.2353 97.621 90.6064C103.548 84.875 103.601 82.4529 105.019 78.9652C107.168 73.6873 103.128 65.3643 99.7499 59.2145C98.4105 56.7749 97.0096 52.8402 95.7186 51.8735C92.0787 53.0978 90.3874 54.0754 86.554 55.544C81.0646 57.6468 81.8387 59.3224 77.009 61.5045Z" fill="#FFD136"/>
    <path d="M91.7279 49.1943L47.4551 75.9007L49.5572 79.3935L93.83 52.6871L91.7279 49.1943Z" fill="#2B3B43"/>
    <path d="M84.0304 70.7229L55.1167 87.6654L57.1742 91.1848L86.0879 74.2423L84.0304 70.7229Z" fill="#2B3B43"/>
    <path d="M69.4963 45.8L66.0896 48.0353L95.4675 92.9131L98.8742 90.6778L69.4963 45.8Z" fill="#2B3B43"/>
    <path d="M108.233 134.877H108.083V136.288H108.233V134.877Z" fill="black"/>
    <path d="M91.7467 137.616H62.9995L61.1697 100.515C50.9143 94.3584 44.5715 83.915 44.4747 72.7956C44.4022 64.4792 47.8881 56.1452 54.0417 49.9293C60.2218 43.6871 68.357 40.25 76.9497 40.25C85.7118 40.25 93.9504 43.8192 100.15 50.2992C106.022 56.438 109.403 64.6223 109.423 72.7538C109.451 84.0031 103.212 94.6182 92.9981 100.931L91.7489 137.618L91.7467 137.616ZM70.1561 130.088H84.4802L85.626 96.4304L87.524 95.4043C96.4158 90.5977 101.925 81.9245 101.901 72.7714C101.886 66.5534 99.2661 60.2605 94.7158 55.5066C89.9477 50.5238 83.6378 47.7781 76.9453 47.7781C70.3738 47.7781 64.1344 50.4248 59.3773 55.2292C54.6268 60.0271 51.9348 66.4058 51.9898 72.7296C52.069 81.744 57.653 90.2453 66.5646 94.9177L68.4692 95.9173L70.1561 130.088Z" fill="#2B3B43"/>
</svg>